<?xml version="1.0" encoding="UTF-8"?>
<!-- Generated by Pixelmator Pro 3.7.1 -->
<svg width="512" height="467" viewBox="0 0 512 467" xmlns="http://www.w3.org/2000/svg">
    <path id="Path" fill="#fcd118" stroke="none" d="M 137.25 96.75 L 137.5 96.75 L 137.75 98.25 L 137.75 395.75 L 137.5 422 L 137.25 421.25 L 136 420.75 L 133.25 419 L 130.25 417 L 126.75 414.5 L 123.25 411.75 L 119.25 408.5 L 116.75 406.5 L 113.75 403.75 L 111.75 402 L 110 400.25 L 108 398.5 L 106.25 396.5 L 101.75 392 L 101.75 391.5 L 101 391.25 L 99.25 389.25 L 96.25 385.75 L 93.5 382.5 L 90 378 L 86.5 373.25 L 84.75 370.75 L 82 366.75 L 79.25 362.5 L 76.75 358.25 L 73.75 353 L 72.25 350 L 69.75 345.25 L 66.5 338.25 L 64.75 334.25 L 62.5 328.5 L 60 321.5 L 58 315.5 L 55.5 306.25 L 53.5 297 L 51.5 285.25 L 50.75 278.75 L 50.25 272.25 L 50 267 L 50 253.75 L 50.5 245.5 L 51.25 238 L 52.25 231 L 53.25 225.25 L 54.5 219 L 56.25 211.5 L 58 205 L 61 196 L 64.75 186 L 67.75 179.25 L 71 172.5 L 73.5 168 L 75 165 L 78.5 159 L 81.5 154.25 L 85.5 148.25 L 89 143.5 L 91.5 140.25 L 94.25 136.75 L 97.75 132.5 L 101 128.75 L 104 125.5 L 105.75 123.75 L 107.5 121.75 L 112.5 116.75 L 114.5 115 L 117 112.75 L 119 111 L 121.75 108.75 L 128.25 103.25 L 132.75 100 L 136 98 L 137 97.5 Z"/>
    <path id="Rectangle" fill="#ea5523" fill-rule="evenodd" stroke="none" d="M 138 467 L 359 467 L 359 95 L 138 95 Z"/>
    <path id="path1" fill="#ea5523" fill-rule="evenodd" stroke="none" d="M 462 467 L 512 467 L 512 422 L 462 422 Z"/>
    <path id="path2" fill="#fcd118" stroke="none" d="M 359.25 82.5 L 359.5 82.5 L 359.75 97.5 L 363.75 100 L 367.25 102.5 L 369.5 104.25 L 372.75 107 L 375.5 109.25 L 379.75 112.75 L 382.25 115 L 385.5 118 L 392 124.5 L 392 125 L 392.5 125 L 392.5 125.5 L 393 125.5 L 394.75 127.5 L 397.25 130.25 L 399.5 133 L 401.5 135.25 L 404 138.5 L 405.75 140.75 L 408.5 144.5 L 411.5 148.75 L 416 155.5 L 421.25 164.25 L 425 171 L 427.25 175.75 L 429.25 179.75 L 431.75 185.25 L 435.5 195.25 L 438.5 204.25 L 440.5 211.5 L 442.25 218.75 L 444.25 229.25 L 445.5 238.75 L 446.5 250.75 L 446.75 254.75 L 446.75 266.25 L 446.25 275.5 L 445.5 283.25 L 444 293.5 L 442 303.75 L 440 311.75 L 437 321.5 L 434 329.75 L 431.5 335.75 L 429 341.5 L 425.75 348.25 L 422.75 353.75 L 419.25 360 L 416.25 364.75 L 412.25 370.75 L 408.75 375.75 L 403.75 382 L 401.5 384.75 L 398.75 388 L 396 391 L 393.75 393.5 L 384.25 403 L 382.25 404.75 L 379.75 407 L 377.25 409 L 373.25 412.25 L 369 415.5 L 364.25 418.75 L 361 420.75 L 359.5 421.25 L 359.25 422 Z"/>
    <path id="path3" fill="#0b0d0e" stroke="none" d="M 148 10 L 150.5 10 L 153.25 11 L 156.25 12.75 L 159.5 15.25 L 163.25 18.75 L 165.5 21 L 168.75 25.25 L 171.5 29.5 L 174 34 L 179.25 44.25 L 187 59.75 L 189.5 64.5 L 191.5 68.5 L 193.75 73.25 L 196.25 78 L 202 89.5 L 204.5 94.25 L 207.5 100 L 211 107 L 245.75 107.25 L 245.75 108 L 244.25 118.75 L 242 137.5 L 240 152.25 L 239 159.75 L 238.25 165.75 L 237.75 168.75 L 237 174.75 L 235.75 183.5 L 235 189.75 L 233.75 199.25 L 232.75 206.5 L 232.25 211 L 231.25 215.75 L 229.25 218.5 L 226.5 221.25 L 224.5 223 L 222.25 225.25 L 220.25 227 L 217.25 229.75 L 214 232.5 L 210.5 235.5 L 206.75 238.75 L 204.75 240.5 L 201.75 243 L 197.5 246 L 193.5 248.5 L 189.5 250.5 L 185.75 252 L 180.75 253.5 L 175.25 254.25 L 172 254.25 L 164.75 253.5 L 157.5 252 L 152 250.5 L 145 247.75 L 138.75 244.75 L 137.75 244.25 L 137.5 243.75 L 137.5 40.5 L 137.75 35.25 L 138.5 30 L 139.25 26.25 L 140.75 20.25 L 142.75 15.25 L 144.25 12.75 L 145.5 11.25 Z"/>
    <path id="path4" fill="#0b0d0e" stroke="none" d="M 346.5 10 L 348.25 10 L 350 10.75 L 352 12.5 L 354 16 L 355.5 20.5 L 357.5 28.5 L 358.75 36.25 L 359.25 39.75 L 359.5 48.75 L 359.5 99 L 359.25 244 L 359 244.5 L 354.5 246.5 L 347.75 249.25 L 341 251.5 L 334 253 L 328.75 253.75 L 326.25 254 L 321 254 L 315.75 253.25 L 310 251.5 L 305.5 249.5 L 301 247 L 296.25 243.75 L 293.25 241.5 L 289.25 238.25 L 282.25 232.25 L 279.75 230 L 276.5 227 L 274 224.75 L 272.5 223.5 L 272.5 223 L 271.5 222.5 L 268.5 219.5 L 266 216.25 L 265.5 215 L 263 196.5 L 261.25 183.75 L 258.5 164.25 L 256.25 146.5 L 254.25 132 L 251.25 108.25 L 251.25 107.75 L 250.75 107.5 L 251.5 107.25 L 285.75 107 L 287.25 104.25 L 290 99 L 295.25 88.5 L 297.75 83.75 L 301 77 L 303 73.5 L 305.75 67.75 L 308.5 62.25 L 311 57.5 L 317 45.5 L 319 41.25 L 320.75 38.25 L 322.75 34.25 L 326 28.5 L 328.5 24.75 L 330.75 22 L 333 19.5 L 335.75 16.75 L 337.75 15 L 341 12.5 L 344.5 10.5 Z"/>
    <path id="path5" fill="#fcd118" stroke="none" d="M 239.25 63 L 257.5 63 L 264.75 63.5 L 274 64.5 L 282 65.75 L 289.5 67.25 L 303.5 71 L 304 71.25 L 303.25 73.5 L 300 79.5 L 295.75 88.25 L 293.25 93 L 289.25 101 L 286.25 106.75 L 285.75 107.25 L 211 107.25 L 208.5 102.5 L 204.75 95 L 202.25 90.5 L 192.75 71.5 L 193 71 L 195.75 70.5 L 203.5 68.25 L 212 66.25 L 219 65 L 226.5 64 L 234.25 63.25 Z"/>
    <path id="path6" fill="#0b0d0e" stroke="none" d="M 247.25 283 L 253.25 283.25 L 256.75 283.75 L 261 284.75 L 264.75 286.25 L 267 287.5 L 269 289.25 L 269.5 290.5 L 269.5 294.75 L 268.5 297.5 L 266.75 300.5 L 264.5 303.25 L 260.75 307 L 257.25 309.5 L 252.25 311.75 L 251.75 311.75 L 252 316.5 L 253.25 321 L 255 324.5 L 257.25 327 L 259 328.5 L 262 330.25 L 266.5 331.75 L 268 332 L 273 332 L 276 331.25 L 279 330 L 282.75 327.75 L 285.75 324.75 L 287.75 321 L 289 317.5 L 290.5 315.75 L 292.5 315.5 L 294 316.25 L 295.5 318 L 295.5 321 L 294.25 324.75 L 291.75 329 L 289.5 331.5 L 287.25 333.75 L 282.75 336.5 L 278 338.25 L 272 339.5 L 269.25 339.5 L 264.5 338.75 L 260.25 337.5 L 256.75 335.75 L 253.25 333.25 L 250.5 330.5 L 248.75 328.25 L 247.75 328 L 247.25 329.25 L 245.25 331.75 L 242.75 334 L 238.75 336.5 L 235.25 338 L 231.25 339 L 229 339.5 L 224.25 339.5 L 219 338.25 L 215 336.75 L 211.75 335 L 209 333 L 207.25 331.5 L 204.5 327.75 L 202.5 324.25 L 201.5 321.5 L 201.25 319 L 202 316.75 L 203.25 315.75 L 203.75 315.5 L 206 315.5 L 207.5 316.75 L 208.5 318.75 L 209.75 322.25 L 211.5 325 L 213 326.75 L 216.75 329.5 L 220 331 L 223.5 332 L 229.25 332 L 233 331 L 236 329.75 L 239.5 327.25 L 241.75 324.75 L 243.75 320.75 L 244.75 316.25 L 244.75 312 L 240.75 310 L 238.25 308.5 L 235.5 306.5 L 234.25 305.5 L 234.25 305 L 233.25 304.5 L 230.25 300.75 L 228.25 297.5 L 227.25 294.5 L 227.25 291.5 L 228 289.5 L 230 287.5 L 232.5 286 L 236 284.75 L 239.25 284 L 243.75 283.25 Z"/>
    <path id="path7" fill="#fcfdf9" stroke="none" d="M 308 173.75 L 312 173.75 L 316.5 174.5 L 320 176 L 322.75 177.75 L 326 180.5 L 328.75 184 L 330.75 187.75 L 332 191.75 L 332.5 194.75 L 332.5 198.25 L 331.75 202.5 L 330.25 206.25 L 328.25 209.75 L 325.25 213 L 322 215.5 L 318.5 217.5 L 315 218.75 L 312.25 219.25 L 307.75 219.25 L 303.5 218.5 L 299 216.5 L 296.5 214.75 L 294 212.5 L 291.5 209.75 L 289.25 206 L 287.75 201.5 L 287.25 198.5 L 287.25 194.75 L 288 190.5 L 289.5 186.75 L 291.5 183.25 L 294.5 180 L 296.75 178 L 300 176 L 303.75 174.5 Z"/>
    <path id="path8" fill="#fcfdf9" stroke="none" d="M 186.25 173.75 L 189.75 173.75 L 194.25 174.5 L 198 176 L 200.75 177.75 L 203.25 180 L 205.5 182.25 L 207.75 185.75 L 209.5 189.75 L 210.25 193.5 L 210.25 199 L 209.5 202.75 L 207.75 206.75 L 206.25 209.5 L 204.25 212 L 201.75 214.25 L 198 216.75 L 195.25 218 L 191.75 219 L 190.5 219.25 L 185.75 219.25 L 181.5 218.5 L 178.5 217.25 L 176 216 L 173.5 214 L 170 210.5 L 168.25 208 L 166.5 204.5 L 165.5 201.25 L 165.25 199.75 L 165.25 193.25 L 166 190.25 L 167.25 187 L 169.25 183.5 L 172.25 180.25 L 175 177.75 L 177.5 176.25 L 180.5 175 L 184.5 174 Z"/>
    <path id="path9" fill="#ea5522" stroke="none" d="M 156.75 50.5 L 157.75 51 L 160.5 57 L 162.5 61.5 L 164.75 66.5 L 168.5 74.75 L 170.75 80 L 172.75 84.5 L 177.5 95 L 180.5 101.75 L 184.75 111 L 188 118.5 L 188.5 119.25 L 188.5 120.25 L 183.75 122.25 L 179.25 124.25 L 174.5 126.75 L 169 130.5 L 165.5 133.25 L 162.25 136 L 161 137.5 L 160.5 137.5 L 160 138.5 L 157.75 141 L 156.75 141.25 Z"/>
    <path id="path10" fill="#ea5523" stroke="none" d="M 339.75 50.25 L 340 50.25 L 340 141 L 339 140.5 L 333 134.5 L 328 130.5 L 325.25 128.75 L 321.75 126.5 L 316.25 123.5 L 311.25 121.5 L 308.25 120.25 L 308.5 119.25 L 309.75 116.5 L 313 109 L 315.75 103 L 320 93.5 L 323.75 85.25 L 326.5 79 L 329.75 71.75 L 333.75 62.75 L 335.5 59 L 339.25 50.75 Z"/>
    <path id="path11" fill="#0b0d0e" stroke="none" d="M 186.75 186.75 L 189 186.75 L 192.25 187.75 L 194.25 189.25 L 196 191.25 L 197 193.75 L 197.25 194.75 L 197.25 197.75 L 196.25 201 L 194.75 203 L 193 204.5 L 191 205.5 L 189.75 205.75 L 186 205.75 L 183.5 205 L 181.25 203.5 L 179.75 201.5 L 178.75 199.25 L 178.5 197.75 L 178.5 195 L 179 192.75 L 180.5 190.25 L 182.25 188.5 L 184.75 187.25 Z"/>
    <path id="path12" fill="#0b0d0e" stroke="none" d="M 309 186.75 L 310.75 186.75 L 314.25 187.75 L 316.25 189.25 L 318 191.25 L 319 193.5 L 319.25 194.5 L 319.25 198.5 L 318.25 201.25 L 316.75 203.25 L 314.75 204.75 L 311.75 205.75 L 308 205.75 L 305.25 204.75 L 303.25 203.25 L 301.5 201 L 300.75 198.75 L 300.5 197.5 L 300.75 194 L 302 191 L 303.5 189.25 L 306.25 187.5 Z"/>
</svg>
